<?xml version="1.0" encoding="UTF-8" standalone="no"?>
<!-- Created with Inkscape (http://www.inkscape.org/) -->

<svg
   xmlns:dc="http://purl.org/dc/elements/1.1/"
   xmlns:cc="http://creativecommons.org/ns#"
   xmlns:rdf="http://www.w3.org/1999/02/22-rdf-syntax-ns#"
   xmlns:svg="http://www.w3.org/2000/svg"
   xmlns="http://www.w3.org/2000/svg"
   version="1.1"
   width="892.91339"
   height="89.291336"
   id="svg11419">
  <defs
     id="defs11421">
    <clipPath
       id="clip4">
      <path
         d="m 294.21484,654.95312 78.63282,0 0,-23.03906 -78.63282,0 0,23.03906 z m 0,0"
         id="path11135" />
    </clipPath>
  </defs>
  <metadata
     id="metadata11424">
    <rdf:RDF>
      <cc:Work
         rdf:about="">
        <dc:format>image/svg+xml</dc:format>
        <dc:type
           rdf:resource="http://purl.org/dc/dcmitype/StillImage" />
        <dc:title></dc:title>
      </cc:Work>
    </rdf:RDF>
  </metadata>
  <g
     transform="translate(54.769665,-440.77188)"
     id="layer1">
    <g
       transform="matrix(2.3251967,0,0,2.3251967,-422.13181,-752.42395)"
       id="g11498">
      <g
         transform="matrix(1.25,0,0,1.25,-208.36827,-268.56376)"
         clip-path="url(#clip4)"
         id="g11238">
        <path
           d="m 313.16406,638.73047 0.89453,0.10547 c 1.71875,-1.55078 2.6211,-2.16016 4.21875,-2.98047 1.80469,-0.92969 8.52735,-3.23047 14.9961,-3.15625 3.28906,0.0352 7.71875,0.30078 12.17968,1.87109 2.39844,0.83985 5.21875,2.19141 7.33985,4.28125 l 0.96484,-0.125 c -2.23047,-2.70312 -6.66797,-4.54687 -9.05469,-5.25781 -2.84375,-0.85547 -7.27734,-1.52344 -11.54296,-1.48438 -3.65235,0.0312 -8,0.69532 -10.97266,1.60547 -3.88672,1.19141 -6.46875,2.5586 -9.02344,5.14063"
           id="path11240"
           style="fill:#eb1923;fill-opacity:1;fill-rule:nonzero;stroke:none" />
        <path
           d="M -0.0164463,-0.0169962 8.083587,0.970501 c 15.563383,-14.036574 23.73416,-19.538347 38.201032,-26.94458 16.341552,-8.393731 77.215601,-29.131183 135.755141,-28.496363 29.81803,0.31741 69.92911,2.715619 110.32317,16.893265 21.71799,7.582572 47.25609,19.785222 66.46272,38.653482 l 8.73672,-1.128569 c -20.19703,-24.370033 -60.37886,-41.051691 -81.99073,-47.470426 -25.75033,-7.723643 -65.89679,-13.754432 -104.52227,-13.401755 -33.07219,0.282143 -72.44048,6.277664 -99.358055,14.495056 -35.194468,10.756672 -58.574914,23.100393 -81.7077613,46.4123928 z m 0,0"
           transform="matrix(0.110436,0,0,0.11076,313.16588,638.73235)"
           id="path11242"
           style="fill:none;stroke:#eb1923;strokeWidth:0.5;strokeLinecap:butt;strokeLinejoin:miter;stroke-miterlimit:3.86400008;stroke-opacity:1" />
        <path
           d="m 339.00391,639.73437 -0.83594,0.0391 c -0.41797,-1.60547 -0.7461,-2.55078 -1.76563,-3.86719 -1.01953,-1.32031 -1.71093,-2.08594 -3.0039,-3.07422 -1.25782,1.00391 -2.03516,1.69141 -3.08203,3.01172 -0.59375,0.76172 -1.32422,2.08203 -1.64844,3.92187 l -0.78125,-0.004 c 0.24609,-1.48438 0.85937,-2.92188 1.625,-4.01172 0.80469,-1.14844 2.11328,-2.57813 3.83203,-3.76563 1.76562,1.25 2.72656,2.15625 3.94531,3.87891 0.91797,1.30469 1.32422,2.23828 1.71485,3.87109"
           id="path11244"
           style="fill:#eb1923;fill-opacity:1;fill-rule:nonzero;stroke:none" />
        <path
           d="M 0.0139674,-0.0183731 -7.555496,0.334305 c -3.784732,-14.495056 -6.755923,-23.029858 -15.987839,-34.915098 -9.231916,-11.920508 -15.492641,-18.86826 -27.200549,-27.755739 -11.389567,9.063818 -18.428461,15.235679 -27.907976,27.191454 -5.376442,6.877217 -11.955508,18.797725 -14.926699,35.408847 l -7.074261,-0.035268 c 2.26376,-13.401754 7.781687,-26.380296 14.714467,-36.220005 7.286493,-10.403994 19.135887,-23.276732 34.69927,-34.033404 15.987839,11.285689 24.689185,19.50308 35.725039,35.056169 8.312261,11.779437 11.990879,20.208436 15.5280114,34.9503659 z m 0,0"
           transform="matrix(0.110436,0,0,0.11076,339.00236,639.73641)"
           id="path11246"
           style="fill:none;stroke:#eb1923;strokeWidth:0.5;strokeLinecap:butt;strokeLinejoin:miter;stroke-miterlimit:3.86400008;stroke-opacity:1" />
        <path
           d="m 346.17578,639.33984 0.79688,-0.0273 c -0.81641,-1.60156 -1.63672,-2.74219 -3.10157,-3.83594 -3.16015,-2.36719 -6.24609,-3.41406 -10.57031,-3.36719 -4.08203,0.0469 -7.65625,1.375 -9.95703,3.22266 -1.69531,1.36328 -2.6875,2.5625 -3.37891,4.04297 l 0.79297,0.0547 c 0.96875,-1.69922 1.79688,-2.67188 3.46875,-3.85157 2,-1.41796 5.36328,-2.80859 9.07031,-2.85156 4.1211,-0.0508 7.5,1.26172 10.05469,3.27344 1.33594,1.05469 1.94141,1.88281 2.82422,3.33984"
           id="path11248"
           style="fill:#eb1923;fill-opacity:1;fill-rule:nonzero;stroke:none" />
        <path
           d="M 0.00942858,-0.0302231 7.225179,-0.277098 c -7.392607,-14.459787 -14.820585,-24.72271 -28.084832,-34.597687 -28.615403,-21.40754 -56.55875,-30.859304 -95.714807,-30.436091 -36.96303,0.458482 -69.3278,12.449525 -90.16151,29.095915 -15.35115,12.308454 -24.37084,23.135661 -30.59619,36.502148 l 7.18038,0.493749 c 8.77208,-15.341483 16.2708,-24.123159 31.40973,-34.774027 18.11012,-12.802202 48.56483,-25.357531 82.13222,-25.745476 37.316747,-0.458481 67.912944,11.391491 91.010419,29.554396 12.132365,9.522299 17.61492,16.999068 25.60883958,30.1539479 z m 0,0"
           transform="matrix(0.110436,0,0,0.11076,346.17474,639.34319)"
           id="path11250"
           style="fill:none;stroke:#eb1923;strokeWidth:0.5;strokeLinecap:butt;strokeLinejoin:miter;stroke-miterlimit:3.86400008;stroke-opacity:1" />
        <path
           d="m -0.00107529,-0.0103828 0,6.9477518 L 141.20125,6.866833 140.95366,-0.0456506 -0.00107529,-0.0103828 z m 0,0"
           transform="matrix(0.110436,0,0,0.11076,356.93762,642.99724)"
           id="path11252"
           style="fill:#eb1923;fill-opacity:1;fill-rule:nonzero;stroke:#eb1923;strokeWidth:0.5;strokeLinecap:butt;strokeLinejoin:miter;stroke-miterlimit:3.86400008;stroke-opacity:1" />
        <path
           d="m 0.0232036,0.00712127 0,6.52453873 -139.5752536,-0.070536 -0.14148,-6.45400273 139.7167336,0 z m 0,0"
           transform="matrix(0.110436,0,0,0.11076,309.99353,643.01874)"
           id="path11254"
           style="fill:#eb1923;fill-opacity:1;fill-rule:nonzero;stroke:#eb1923;strokeWidth:0.5;strokeLinecap:butt;strokeLinejoin:miter;stroke-miterlimit:3.86400008;stroke-opacity:1" />
        <path
           d="m 353.92578,647.94531 -0.99609,-0.0859 c -1.71875,1.5586 -2.46875,1.92188 -4.08203,2.85938 -2.47657,1.42969 -8.90235,3.49609 -15.3711,3.42187 -3.28906,-0.0391 -5.72656,-0.1914 -10.44531,-1.47656 -2.48438,-0.67578 -6.85938,-2.67187 -8.97656,-4.75781 l -0.92969,0.10547 c 2.23437,2.69922 7.32422,4.71875 9.70703,5.43359 2.83984,0.85547 6.49609,1.45313 10.75781,1.41406 3.65625,-0.0391 7.66797,-0.5039 10.64453,-1.41406 3.88672,-1.18359 7.25,-3.00781 9.69141,-5.5"
           id="path11256"
           style="fill:#eb1923;fill-opacity:1;fill-rule:nonzero;stroke:none" />
        <path
           d="M 0.00473127,-0.0132155 -9.014957,-0.753839 c -15.563383,14.036575 -22.354677,17.316478 -36.963035,25.780744 -22.42542,12.908006 -80.611248,31.564659 -139.186168,30.894571 -29.78265,-0.352677 -51.85436,-1.728121 -94.58292,-13.295951 -22.49616,-6.136593 -62.11205,-24.158426 -81.28331,-42.991418 l -8.41837,0.95223 c 20.26777,24.4053 66.32123,42.603472 87.89774,49.092743 25.75033,7.688375 58.82252,13.084345 97.41263,12.731667 33.10756,-0.352678 69.46928,-4.549543 96.386863,-12.731667 35.194469,-10.721404 65.64918,-27.156187 87.75625827,-49.6922955 z m 0,0"
           transform="matrix(0.110436,0,0,0.11076,353.92526,647.94678)"
           id="path11258"
           style="fill:none;stroke:#eb1923;strokeWidth:0.5;strokeLinecap:butt;strokeLinejoin:miter;stroke-miterlimit:3.86400008;stroke-opacity:1" />
        <path
           d="m 327.92578,646.90625 0.82031,-0.0117 c 0.55078,1.85547 0.91797,2.79688 2.00391,4.29297 0.85547,1.17187 1.36719,1.70312 2.61328,2.64062 1.26172,-1.00781 2.10156,-1.63281 3.04297,-3.00781 0.9375,-1.375 1.33203,-2.30078 1.68359,-3.92969 l 0.83203,0.0156 c -0.35156,1.66797 -0.82812,2.78516 -1.61718,3.99609 -0.85157,1.30469 -2.20703,2.55078 -3.8125,3.80469 -1.57422,-1.08203 -2.82032,-2.08203 -3.92188,-3.87891 -0.82422,-1.34375 -1.19531,-2.29687 -1.64453,-3.92187"
           id="path11260"
           style="fill:#eb1923;fill-opacity:1;fill-rule:nonzero;stroke:none" />
        <path
           d="M 0.0265879,0.0130575 7.454566,-0.0927458 C 12.441923,16.659448 15.766828,25.158981 25.635427,38.66654 33.346376,49.246872 38.015391,54.04329 49.263473,62.507556 60.688411,53.443737 68.293246,47.800893 76.817735,35.351369 85.306853,22.937112 88.879357,14.578649 92.062776,-0.128014 l 7.534093,0.1410715 C 96.413449,15.072398 92.133519,25.158981 84.95314,36.091992 77.277562,47.871429 64.968341,59.121849 50.430727,70.442805 36.176082,60.673631 24.928001,51.680349 14.917916,35.457172 7.454566,23.289789 4.09429,14.684452 0.0265879,0.0130575 z m 0,0"
           transform="matrix(0.110436,0,0,0.11076,327.92284,646.9048)"
           id="path11262"
           style="fill:none;stroke:#eb1923;strokeWidth:0.5;strokeLinecap:butt;strokeLinejoin:miter;stroke-miterlimit:3.86400008;stroke-opacity:1" />
        <path
           d="m 320.77734,647.22656 -0.89453,0.0547 c 0.8125,1.60547 1.50781,2.51562 3.12891,3.83203 3.0664,2.49609 6.17187,3.57422 10.5,3.59375 4.16406,0.0156 8.1914,-1.76953 10.17969,-3.24609 1.74218,-1.30078 2.80078,-2.34375 3.42187,-4.16016 l -0.88281,-0.0508 c -0.39063,1.67187 -2.46485,3.5 -4.4375,4.57031 -2.16016,1.16797 -4.9336,2.15625 -8.25781,2.14453 -4.10547,-0.0156 -7.44141,-1.32812 -9.9961,-3.33984 -1.33203,-1.05469 -1.91406,-1.91406 -2.76172,-3.39844"
           id="path11264"
           style="fill:#eb1923;fill-opacity:1;fill-rule:nonzero;stroke:none" />
        <path
           d="M 0.0289649,-0.00268599 -8.071069,0.491063 c 7.357236,14.495056 13.653332,22.712447 28.332432,34.597688 27.76649,22.536108 55.886694,32.270014 95.078117,32.446353 37.70584,0.141071 74.17367,-15.941034 92.17768,-29.307521 15.77561,-11.74417 25.39661,-21.160666 30.98528,-37.560181 L 230.50852,0.208921 C 226.97139,15.303529 208.18921,31.844115 190.32669,41.472218 170.76635,52.017283 145.65271,60.94003 115.55171,60.834227 78.376451,60.693156 48.169339,48.843183 25.036492,30.680279 12.97487,21.157979 7.704542,13.399069 0.0289649,-0.00268599 z m 0,0"
           transform="matrix(0.110436,0,0,0.11076,320.77414,647.22686)"
           id="path11266"
           style="fill:none;stroke:#eb1923;strokeWidth:0.5;strokeLinecap:butt;strokeLinejoin:miter;stroke-miterlimit:3.86400008;stroke-opacity:1" />
        <path
           d="M 0.010685,-0.00397256 C 7.08495,-1.203077 9.384086,-7.269134 8.782774,-13.511531 8.252204,-19.260178 4.6797,-22.046332 -2.217709,-22.328474 l -67.205518,0.07053 -0.03537,25.674941 0,18.23344 70.424309,0 C 6.094553,20.345534 9.277972,16.430811 9.560943,11.140645 9.773171,5.779943 6.766608,1.442006 1.637766,-0.180311 l -71.591563,0 m 392.586337,-22.007092 -69.00945,0 c -5.73016,0.387945 -10.39917,4.725882 -10.32843,10.403993 0.10611,5.995522 3.50176,10.227655 9.47952,11.603099 l 59.10548,0 c 5.69478,0.31741 10.46991,4.479007 10.46991,10.192387 0,6.242396 -3.99696,11.462027 -10.08082,11.991043 l -68.44352,0 M 24.063186,0.0312952 228.22648,0.066563 m -101.37422,-17.528084 0,33.857064 m -248.69579,-71.946262 c -30.91454,13.366487 -48.03426,32.834299 -48.52946,55.01773 -0.42445,18.762456 16.55378,36.537415 36.07875,47.928907 32.18791,18.762456 73.85533,32.904834 120.793079,40.205264 51.111565,7.864714 77.074118,12.414258 136.250341,11.920508 71.20248,-0.564284 121.39439,-6.171861 170.13608,-16.575855 34.87613,-7.4415 46.69015,-13.225415 88.28683,-31.317784 45.23992,-19.749954 70.24745,-65.139582 0.70742,-103.087708 -31.48048,-17.140139 -63.98672,-24.652175 -106.60917,-34.068671 -56.77098,-12.484793 -106.85678,-14.318717 -148.38271,-13.895504 -50.085798,0.493749 -86.199921,2.927226 -136.88703,12.026312 -47.008491,8.464266 -74.810353,15.835231 -111.84413,31.846801 z m -102.04627,55.01773 c 0,-56.992725 154.11286,-97.973881 350.21149,-97.973881 196.02788,0 352.97045,41.721779 352.97045,98.009149 0,56.357905 -157.57925,100.865841 -353.67788,100.901101 C -61.464678,100.47392 -223.8898,55.789648 -223.8898,-0.532989 z M 7.898491,-93.780988 c 19.454228,7.794179 31.76345,11.920508 51.288421,15.729428 17.933262,3.526778 31.020653,5.642844 47.751288,6.700878 25.82107,0 30.38397,0.670087 50.65174,-0.95223 24.83067,-1.939728 28.22632,-3.350439 45.87661,-7.61784 15.56338,-3.773652 24.22936,-6.489271 39.19143,-12.237918 m -386.43173,27.649936 c 25.36124,5.07856 40.71239,7.194626 65.366207,11.25042 24.052501,3.914723 40.323311,5.466506 66.285863,7.794179 29.145972,2.609815 45.62901,3.385706 74.916467,4.408472 25.290498,0.916962 39.545143,1.058033 64.906383,1.022765 34.84075,-0.03527 54.47184,-0.493749 89.24185,-2.292405 26.06867,-1.340176 34.6639,-1.58705 66.67495,-4.725882 24.75993,-2.433477 35.12373,-4.020527 57.44303,-7.547304 21.85948,-3.385707 34.09796,-5.642844 55.70984,-10.121852 M -140.73182,64.00704 c 25.43198,-4.725882 40.11108,-7.512036 65.330839,-11.391491 25.714954,-3.949991 40.040341,-5.889719 65.967522,-8.041053 28.82763,-2.398209 45.416782,-2.362941 74.45664,-3.350439 25.467354,-0.95223 39.792739,-1.728121 65.260099,-1.763389 34.80538,-0.105803 54.11812,1.304908 89.13574,2.821422 25.00752,1.058034 27.76649,0.63482 58.64565,3.562046 24.72456,2.327673 49.73209,6.242396 68.47889,9.169621 18.18086,2.821422 32.01105,5.113828 51.25305,9.5223 M 245.16934,94.584201 c -16.44767,-7.617839 -24.93678,-10.439261 -43.7897,-15.623624 -17.57955,-4.831685 -31.72808,-6.630342 -48.52946,-7.688375 -25.82107,0 -32.1879,-1.058033 -52.34956,0.564284 -18.711431,1.516515 -29.853398,3.80892 -46.477921,8.393731 -14.39613,3.949991 -25.007527,7.088823 -40.358682,13.366487"
           transform="matrix(0.110436,0,0,0.11076,319.4246,643.39497)"
           id="path11268"
           style="fill:none;stroke:#eb1923;strokeWidth:7.08699989;strokeLinecap:butt;strokeLinejoin:miter;stroke-miterlimit:3.86400008;stroke-opacity:1" />
      </g>
      <path
         d="m 275.86513,526.88058 -0.8545,5.88378 4.58985,0 c 0.81542,0 1.5039,-0.21972 2.0752,-0.65917 0.58593,-0.43946 0.96678,-1.22071 1.14745,-2.34375 0.18067,-1.23536 -0.039,-2.06055 -0.65918,-2.46583 -0.55176,-0.27832 -1.2793,-0.41503 -2.17285,-0.41503 l -4.12597,0 z m -1.51368,10.30273 -1.07421,7.1289 4.61425,0 c 0.81544,0 1.47461,-0.15625 1.97754,-0.46386 0.91308,-0.58594 1.48926,-1.69922 1.7334,-3.34472 0.20996,-1.38184 -0.0489,-2.33399 -0.78125,-2.85645 -0.40528,-0.29298 -1.01563,-0.44923 -1.83105,-0.46387 l -4.63868,0 z m 12.01173,-12.08496 c 0.40526,1.12304 0.49803,2.48046 0.26855,4.07715 -0.24414,1.62598 -0.73243,2.93945 -1.46485,3.93066 -0.39063,0.55175 -0.9375,1.05957 -1.63574,1.51367 0.87891,0.48828 1.47949,1.26953 1.80664,2.34375 0.32715,1.07422 0.37597,2.38281 0.14648,3.93067 -0.22948,1.57714 -0.71777,2.99316 -1.46483,4.24804 -0.48829,0.83009 -1.04005,1.52832 -1.66017,2.09961 -0.68358,0.64941 -1.45507,1.09864 -2.31933,1.34278 -0.84473,0.24413 -1.74317,0.36621 -2.68555,0.36621 l -8.47168,0 3.95508,-26.70899 9.08203,0 c 2.29493,0.0489 3.77442,1.00097 4.44337,2.85645 z m 0,0"
         id="path11270"
         style="fill:#eb1923;fill-opacity:1;fill-rule:nonzero;stroke:none" />
      <path
         d="m 294.18055,538.86788 4.73633,0 -0.78125,-10.52247 -3.95508,10.52247 z m 2.70996,-16.62598 4.41895,0 2.63672,26.70899 -4.22363,0 -0.39062,-5.49316 -6.88478,0 -2.12402,5.49316 -4.07714,0 10.64452,-26.70899 z m 0,0"
         id="path11272"
         style="fill:#eb1923;fill-opacity:1;fill-rule:nonzero;stroke:none" />
      <path
         d="m 310.29871,522.2419 3.95509,0 -2.44141,16.40625 c -0.27833,1.84083 -0.32715,3.1836 -0.14649,4.02833 0.25879,1.49902 1.18653,2.24608 2.78321,2.24608 1.57714,0 2.70995,-0.74706 3.39355,-2.24608 0.43945,-0.84473 0.79102,-2.1875 1.0498,-4.02833 l 2.46583,-16.40625 3.95507,0 -2.4414,16.40625 c -0.42481,2.84668 -1.05957,5.06348 -1.9043,6.64063 -1.59667,2.89551 -4.01367,4.3457 -7.25097,4.3457 -3.23731,0 -5.21485,-1.45019 -5.93263,-4.3457 -0.39062,-1.57715 -0.37597,-3.79395 0.0489,-6.64063 l 2.46581,-16.40625 z m 0,0"
         id="path11274"
         style="fill:#eb1923;fill-opacity:1;fill-rule:nonzero;stroke:none" />
      <path
         d="m 329.13173,540.69894 c -0.0684,1.2207 0.0292,2.13379 0.29296,2.73437 0.46875,1.10839 1.46974,1.66015 3.00294,1.66015 0.92773,0 1.69433,-0.14648 2.31933,-0.43945 1.17188,-0.55176 1.86523,-1.58691 2.0996,-3.10058 0.12697,-0.87892 -0.0439,-1.5625 -0.51268,-2.05079 -0.47852,-0.47363 -1.26465,-0.88866 -2.36817,-1.24511 l -1.87988,-0.63477 c -1.85547,-0.62012 -3.10059,-1.30371 -3.73535,-2.05078 -1.07423,-1.2207 -1.41602,-3.13965 -1.02539,-5.76172 0.35156,-2.39257 1.25487,-4.37988 2.70996,-5.95704 1.46484,-1.59667 3.36914,-2.39257 5.71289,-2.39257 1.98242,0 3.5498,0.74707 4.71191,2.2461 1.17188,1.47949 1.57226,3.64745 1.2207,6.49414 l -3.75976,0 c 0.17577,-1.61133 -0.1416,-2.74903 -0.95215,-3.41798 -0.53711,-0.4541 -1.25976,-0.68358 -2.14844,-0.68358 -1.01562,0 -1.87011,0.29296 -2.56347,0.8789 -0.6836,0.57128 -1.09864,1.37696 -1.24512,2.417 -0.14648,0.96191 0.0341,1.6748 0.56152,2.14843 0.32227,0.30762 1.07911,0.67383 2.27051,1.09863 l 3.05176,1.09864 c 1.32813,0.48827 2.2998,1.1377 2.90528,1.95312 0.92772,1.25489 1.2207,3.0664 0.8789,5.44434 -0.38087,2.4414 -1.33789,4.46777 -2.88087,6.0791 -1.55272,1.61132 -3.51073,2.41699 -5.88378,2.41699 -2.4414,0 -4.24317,-0.79102 -5.3955,-2.36817 -1.16212,-1.59667 -1.53322,-3.78417 -1.12305,-6.56737 l 3.73535,0 z m 0,0"
         id="path11276"
         style="fill:#eb1923;fill-opacity:1;fill-rule:nonzero;stroke:none" />
      <path
         d="m 347.7743,525.0251 c 1.85548,-2.19726 3.95508,-3.2959 6.29883,-3.2959 3.13477,0 5.22461,1.47461 6.25,4.41895 0.54687,1.66016 0.73242,3.32031 0.53711,4.98048 l -3.90625,0 c -0.0684,-1.26954 -0.24414,-2.23145 -0.53711,-2.88087 -0.5371,-1.17187 -1.50879,-1.75781 -2.90527,-1.75781 -1.41602,0 -2.66113,0.82031 -3.73536,2.46581 -1.06445,1.64552 -1.80664,3.96485 -2.24609,6.95802 -0.45898,2.99316 -0.36621,5.23926 0.26855,6.73828 0.64454,1.47949 1.64063,2.22168 2.97853,2.22168 1.37695,0 2.52441,-0.64454 3.44237,-1.92871 0.48829,-0.68359 0.96192,-1.71875 1.44044,-3.10059 l 3.85741,0 c -0.77147,2.91504 -1.97753,5.2832 -3.63768,7.1045 -1.66017,1.82129 -3.58399,2.73437 -5.76173,2.73437 -2.68555,0 -4.61425,-1.23047 -5.78612,-3.68652 -1.17188,-2.47559 -1.43555,-5.86915 -0.78125,-10.18066 0.68358,-4.67287 2.08495,-8.26662 4.22362,-10.79103 z m 0,0"
         id="path11278"
         style="fill:#eb1923;fill-opacity:1;fill-rule:nonzero;stroke:none" />
      <path
         d="m 361.13368,548.95089 3.9795,-26.70899 3.85741,0 -1.51366,10.18066 7.2998,0 1.51367,-10.18066 3.88184,0 -3.95509,26.70899 -3.88184,0 1.75782,-11.91406 -7.2998,0 -1.78223,11.91406 -3.85742,0 z m 0,0"
         id="path11280"
         style="fill:#eb1923;fill-opacity:1;fill-rule:nonzero;stroke:none" />
      <path
         d="m 384.10731,538.51144 0.708,-4.71193 5.2002,0 1.09864,-7.44628 3.34473,0 -1.09864,7.44628 5.2002,0 -0.70801,4.71193 -5.20019,0 -1.09864,7.4707 -3.34472,0 1.09862,-7.4707 -5.20019,0 z m 0,0"
         id="path11284"
         style="fill:#eb1923;fill-opacity:1;fill-rule:nonzero;stroke:none" />
      <path
         d="m 407.40321,540.69894 c -0.0635,1.2207 0.0341,2.13379 0.29297,2.73437 0.47363,1.10839 1.47461,1.66015 3.00293,1.66015 0.92773,0 1.69922,-0.14648 2.31933,-0.43945 1.17187,-0.55176 1.87012,-1.58691 2.09961,-3.10058 0.13184,-0.87892 -0.039,-1.5625 -0.51269,-2.05079 -0.47363,-0.47363 -1.25977,-0.88866 -2.36817,-1.24511 l -1.87988,-0.63477 c -1.85547,-0.62012 -3.10058,-1.30371 -3.73535,-2.05078 -1.07422,-1.2207 -1.41602,-3.13965 -1.0254,-5.76172 0.35645,-2.39257 1.25978,-4.37988 2.70997,-5.95704 1.46485,-1.59667 3.36915,-2.39257 5.7129,-2.39257 1.9873,0 3.55468,0.74707 4.71191,2.2461 1.17187,1.47949 1.57715,3.64745 1.2207,6.49414 l -3.75976,0 c 0.18066,-1.61133 -0.13673,-2.74903 -0.95215,-3.41798 -0.53712,-0.4541 -1.25489,-0.68358 -2.14844,-0.68358 -1.01075,0 -1.86524,0.29296 -2.56348,0.8789 -0.6836,0.57128 -1.09863,1.37696 -1.24512,2.417 -0.14648,0.96191 0.039,1.6748 0.56152,2.14843 0.32715,0.30762 1.08399,0.67383 2.27052,1.09863 l 3.05175,1.09864 c 1.33301,0.48827 2.30468,1.1377 2.90527,1.95312 0.92774,1.25489 1.22071,3.0664 0.87891,5.44434 -0.37597,2.4414 -1.33301,4.46777 -2.88086,6.0791 -1.54785,1.61132 -3.50586,2.41699 -5.88379,2.41699 -2.44141,0 -4.23828,-0.79102 -5.39551,-2.36817 -1.15722,-1.59667 -1.52831,-3.78417 -1.12304,-6.56737 l 3.73535,0 z m 0,0"
         id="path11288"
         style="fill:#eb1923;fill-opacity:1;fill-rule:nonzero;stroke:none" />
      <path
         d="m 438.23329,522.2419 -0.70801,4.73633 -5.59082,0 -3.27148,21.97266 -3.93067,0 3.27149,-21.97266 -5.61524,0 0.708,-4.73633 15.13673,0 z m 0,0"
         id="path11290"
         style="fill:#eb1923;fill-opacity:1;fill-rule:nonzero;stroke:none" />
      <path
         d="m 443.72645,526.88058 -1.07421,7.17773 4.44335,0 c 0.87891,0 1.55274,-0.14648 2.02637,-0.43946 0.86425,-0.50292 1.40625,-1.5039 1.63574,-3.00292 0.22949,-1.62598 0.01,-2.71973 -0.65917,-3.27149 -0.37598,-0.30761 -0.98634,-0.46386 -1.83107,-0.46386 l -4.54101,0 z m 10.49805,-2.0752 c 0.29296,0.66895 0.49805,1.41601 0.61035,2.2461 0.11225,0.81542 0.0976,1.74803 -0.0489,2.80761 -0.19532,1.26953 -0.61035,2.51465 -1.24513,3.73535 -0.62011,1.2207 -1.47949,2.08496 -2.58789,2.58788 0.78125,0.50294 1.28418,1.21094 1.51368,2.12403 0.22949,0.91309 0.19531,2.30469 -0.0976,4.17481 l -0.24413,1.80664 c -0.18067,1.20605 -0.26855,2.02636 -0.26855,2.46582 0,0.68359 0.15625,1.19629 0.46386,1.53808 l -0.0733,0.65919 -4.29688,0 c -0.0342,-0.58594 -0.0489,-1.06445 -0.0489,-1.44044 0,-0.74706 0.0586,-1.51366 0.1709,-2.29491 l 0.3418,-2.49024 c 0.22949,-1.69434 0.1709,-2.82226 -0.1709,-3.39355 -0.32715,-0.5713 -1.05956,-0.8545 -2.19726,-0.8545 l -4.05274,0 -1.53809,10.47364 -3.80859,0 3.95508,-26.70899 9.17969,0 c 1.30371,0.0341 2.27051,0.25879 2.90527,0.6836 0.64941,0.4248 1.16211,1.0498 1.53809,1.87987 z m 0,0"
         id="path11292"
         style="fill:#eb1923;fill-opacity:1;fill-rule:nonzero;stroke:none" />
      <path
         d="m 470.61121,535.57198 c 0.43947,-3.01269 0.32715,-5.33203 -0.34178,-6.958 -0.64943,-1.64552 -1.75782,-2.46583 -3.32032,-2.46583 -1.54786,0 -2.89551,0.82031 -4.05273,2.46583 -1.15723,1.62597 -1.96289,3.94531 -2.417,6.958 -0.4541,2.99316 -0.34179,5.3125 0.3418,6.95801 0.6836,1.62597 1.79687,2.4414 3.34472,2.4414 1.54785,0 2.89551,-0.81543 4.05274,-2.4414 1.15722,-1.64551 1.95312,-3.96485 2.39257,-6.95801 z m -0.56152,11.01075 c -1.72363,2.06542 -3.92089,3.10058 -6.59179,3.10058 -2.6709,0 -4.55566,-1.03516 -5.66406,-3.10058 -1.51368,-2.55372 -1.91406,-6.22559 -1.19629,-11.01075 0.73241,-4.89747 2.22168,-8.5791 4.46776,-11.03516 1.72364,-2.06543 3.9209,-3.10058 6.5918,-3.10058 2.6709,0 4.55567,1.03515 5.66407,3.10058 1.52832,2.45606 1.92871,6.13769 1.19628,11.03516 -0.71777,4.78516 -2.20702,8.45703 -4.46777,11.01075 z m -0.51269,-31.93361 3.32031,0 -0.65918,4.29688 -3.29589,0 0.63476,-4.29688 z m -5.07812,0 3.32031,0 -0.65919,4.29688 -3.29589,0 0.63477,-4.29688 z m 0,0"
         id="path11294"
         style="fill:#eb1923;fill-opacity:1;fill-rule:nonzero;stroke:none" />
      <path
         d="m 482.56923,526.88058 -0.85449,5.88378 4.58984,0 c 0.81542,0 1.50391,-0.21972 2.0752,-0.65917 0.58593,-0.43946 0.96678,-1.22071 1.14746,-2.34375 0.18066,-1.23536 -0.039,-2.06055 -0.65919,-2.46583 -0.55175,-0.27832 -1.2793,-0.41503 -2.17285,-0.41503 l -4.12597,0 z m -1.51368,10.30273 -1.07421,7.1289 4.61425,0 c 0.81544,0 1.47461,-0.15625 1.97754,-0.46386 0.91308,-0.58594 1.48926,-1.69922 1.7334,-3.34472 0.20996,-1.38184 -0.0489,-2.33399 -0.78125,-2.85645 -0.40528,-0.29298 -1.01563,-0.44923 -1.83105,-0.46387 l -4.63868,0 z m 12.01173,-12.08496 c 0.40527,1.12304 0.49803,2.48046 0.26855,4.07715 -0.24414,1.62598 -0.73243,2.93945 -1.46484,3.93066 -0.39063,0.55175 -0.9375,1.05957 -1.63575,1.51367 0.87891,0.48828 1.4795,1.26953 1.80664,2.34375 0.32715,1.07422 0.37598,2.38281 0.14648,3.93067 -0.22948,1.57714 -0.71777,2.99316 -1.46483,4.24804 -0.48829,0.83009 -1.04004,1.52832 -1.66017,2.09961 -0.68358,0.64941 -1.45507,1.09864 -2.31933,1.34278 -0.84473,0.24413 -1.74317,0.36621 -2.68554,0.36621 l -8.47169,0 3.95508,-26.70899 9.08203,0 c 2.29493,0.0489 3.77442,1.00097 4.44337,2.85645 z m 0,0"
         id="path11296"
         style="fill:#eb1923;fill-opacity:1;fill-rule:nonzero;stroke:none" />
      <path
         d="m 511.35829,526.97823 -9.8877,0 -0.85449,5.66406 9.08203,0 -0.68359,4.63867 -9.08204,0 -1.02539,6.86035 10.35157,0 -0.708,4.80958 -14.16017,0 3.95508,-26.70899 13.72071,0 -0.70801,4.73633 z m 0,0"
         id="path11298"
         style="fill:#eb1923;fill-opacity:1;fill-rule:nonzero;stroke:none" />
      <path
         d="m 515.57704,522.2419 3.90625,0 -3.27149,21.89941 9.25294,0 -0.70801,4.80958 -13.15918,0 3.97949,-26.70899 z m 0,0"
         id="path11300"
         style="fill:#eb1923;fill-opacity:1;fill-rule:nonzero;stroke:none" />
      <path
         d="m 535.162,522.98409 c -1.26954,0 -2.35351,0.44922 -3.24707,1.34277 -0.8789,0.89355 -1.31837,1.97754 -1.31837,3.24708 0,1.28417 0.43947,2.37792 1.31837,3.27147 0.87891,0.89357 1.95801,1.34278 3.24707,1.34278 1.26953,0 2.34375,-0.44921 3.22265,-1.34278 0.89356,-0.89355 1.34278,-1.9873 1.34278,-3.27147 0,-1.26954 -0.44922,-2.35353 -1.34278,-3.24708 -0.89844,-0.89355 -1.97265,-1.34277 -3.22265,-1.34277 z m 5.32226,4.58985 c 0,1.47949 -0.52246,2.74414 -1.5625,3.78417 -1.04492,1.04004 -2.29492,1.5625 -3.75976,1.5625 -1.48437,0 -2.74414,-0.52246 -3.78419,-1.5625 -1.02538,-1.04003 -1.53807,-2.30468 -1.53807,-3.78417 0,-1.46485 0.51757,-2.71974 1.5625,-3.75978 1.04004,-1.02539 2.29491,-1.53809 3.75976,-1.53809 1.46484,0 2.71484,0.5127 3.75976,1.53809 1.04004,1.04004 1.5625,2.29493 1.5625,3.75978 z m -3.93066,-1.14746 c 0,-0.42482 -0.13184,-0.70802 -0.39062,-0.8545 -0.26368,-0.14648 -0.67872,-0.21973 -1.24512,-0.21973 l -0.87891,0 0,2.09961 0.92774,0 c 0.43945,0 0.76171,-0.039 0.97656,-0.12212 0.40528,-0.16113 0.61035,-0.46386 0.61035,-0.90331 z m -1.51367,-1.78223 c 0.73242,0 1.26953,0.0732 1.61132,0.21973 0.60059,0.24413 0.90333,0.73241 0.90333,1.46483 0,0.52247 -0.19532,0.90333 -0.58594,1.14747 -0.19531,0.13183 -0.47364,0.22948 -0.83008,0.29297 0.4541,0.0635 0.78613,0.2539 1.00098,0.56151 0.20996,0.30763 0.31739,0.61037 0.31739,0.90333 l 0,0.43945 c 0,0.13184 0,0.27832 0,0.43946 0.0146,0.14648 0.039,0.24414 0.0733,0.29296 l 0.0244,0.0732 -0.95215,0 c -0.0195,-0.0146 -0.0244,-0.0341 -0.0244,-0.0489 0,-0.0146 -0.01,-0.039 -0.0244,-0.0733 l 0,-0.19531 0,-0.46387 c 0,-0.66894 -0.19042,-1.10839 -0.56152,-1.31835 -0.21484,-0.13184 -0.5957,-0.19532 -1.14747,-0.19532 l -0.80566,0 0,2.29492 -1.02539,0 0,-5.83496 2.02637,0 z m 0,0"
         id="path11304"
         style="fill:#eb1923;fill-opacity:1;fill-rule:nonzero;stroke:none" />
    </g>
  </g>
</svg>
