<?xml version="1.0" encoding="UTF-8" standalone="no"?>
<svg
   xmlns:dc="http://purl.org/dc/elements/1.1/"
   xmlns:cc="http://creativecommons.org/ns#"
   xmlns:rdf="http://www.w3.org/1999/02/22-rdf-syntax-ns#"
   xmlns:svg="http://www.w3.org/2000/svg"
   xmlns="http://www.w3.org/2000/svg"
   width="84.25"
   height="57.218746"
   viewBox="0 0 22.291145 15.139127"
   version="1.1"
   id="svg8">
  <defs
     id="defs269" />
  <path
     id="path5020"
     style="clip-rule:nonzero;fill:#7fb511;fill-opacity:1;fill-rule:nonzero;stroke:none;strokeWidth:1.33333"
     d="M 0 0 L 0 57.21875 L 84.380859 57.21875 L 84.380859 0 L 0 0 z M 65.796875 5.7402344 C 66.645832 5.7402344 67.666701 6.0266847 68.09375 6.1464844 L 68.09375 8.1621094 C 67.781183 8.1152432 67.307269 8.0058594 66.5 8.0058594 C 65.65622 8.0058594 65.146484 8.2402284 65.146484 9.1152344 C 65.146484 10.011069 65.718075 10.166016 66.478516 10.166016 C 66.999335 10.166016 67.531281 10.072952 68.09375 9.96875 L 68.09375 11.833984 C 67.328131 12.042312 66.594403 12.197266 65.849609 12.197266 C 63.537105 12.197266 62.640625 11.135415 62.640625 8.890625 C 62.640625 6.869791 63.489587 5.7402344 65.796875 5.7402344 z M 4.4003906 5.8964844 L 6.78125 5.8964844 L 6.78125 8.0722656 L 8.1875 8.0722656 L 8.1875 5.8964844 L 10.572266 5.8964844 L 10.572266 12.041016 L 8.1875 12.041016 L 8.1875 9.8652344 L 6.78125 9.8652344 L 6.78125 12.041016 L 4.4003906 12.041016 L 4.4003906 5.8964844 z M 11.28125 5.8964844 L 16.333984 5.8964844 L 16.333984 7.6875 L 13.662109 7.6875 L 13.662109 8.3378906 L 16.333984 8.3378906 L 16.333984 9.7753906 L 13.662109 9.7753906 L 13.662109 10.431641 L 16.333984 10.431641 L 16.333984 12.041016 L 11.28125 12.041016 L 11.28125 5.8964844 z M 17.041016 5.8964844 L 21.166016 5.8964844 C 22.379584 5.8964844 23.396484 6.1562429 23.396484 7.671875 C 23.396484 8.8333352 22.83919 9.4055997 21.646484 9.4316406 L 23.630859 12.041016 L 20.875 12.041016 L 19.453125 9.890625 L 19.425781 9.890625 L 19.425781 12.041016 L 17.041016 12.041016 L 17.041016 5.8964844 z M 23.921875 5.8964844 L 28.046875 5.8964844 C 29.260406 5.8964844 30.275391 6.1562429 30.275391 7.671875 C 30.275391 8.8333352 29.718096 9.4055997 28.525391 9.4316406 L 30.509766 12.041016 L 27.755859 12.041016 L 26.333984 9.890625 L 26.306641 9.890625 L 26.306641 12.041016 L 23.921875 12.041016 L 23.921875 5.8964844 z M 30.802734 5.8964844 L 35.859375 5.8964844 L 35.859375 7.6875 L 33.1875 7.6875 L 33.1875 8.3378906 L 35.859375 8.3378906 L 35.859375 9.7753906 L 33.1875 9.7753906 L 33.1875 10.431641 L 35.859375 10.431641 L 35.859375 12.041016 L 30.802734 12.041016 L 30.802734 5.8964844 z M 36.568359 5.8964844 L 39.271484 5.8964844 L 40.65625 9.296875 L 40.671875 9.296875 L 40.515625 5.8964844 L 42.734375 5.8964844 L 42.734375 12.041016 L 40.265625 12.041016 L 38.646484 8.28125 L 38.630859 8.28125 L 38.787109 12.041016 L 36.568359 12.041016 L 36.568359 5.8964844 z M 43.447266 5.8964844 L 45.771484 5.8964844 L 45.771484 8.28125 L 45.796875 8.28125 L 47.167969 5.8964844 L 49.990234 5.8964844 L 47.714844 8.8847656 L 50.058594 12.041016 L 47.183594 12.041016 L 45.796875 9.625 L 45.771484 9.625 L 45.771484 12.041016 L 43.447266 12.041016 L 43.447266 5.8964844 z M 50.328125 5.8964844 L 53.03125 5.8964844 L 54.416016 9.296875 L 54.439453 9.296875 L 54.283203 5.8964844 L 56.501953 5.8964844 L 56.501953 12.041016 L 54.033203 12.041016 L 52.408203 8.28125 L 52.392578 8.28125 L 52.548828 12.041016 L 50.330078 12.041016 L 50.328125 5.8964844 z M 57.208984 5.8964844 L 62.259766 5.8964844 L 62.259766 7.6875 L 59.59375 7.6875 L 59.59375 8.3378906 L 62.259766 8.3378906 L 62.259766 9.7753906 L 59.59375 9.7753906 L 59.59375 10.431641 L 62.259766 10.431641 L 62.259766 12.041016 L 57.208984 12.041016 L 57.208984 5.8964844 z M 68.734375 5.8964844 L 71.115234 5.8964844 L 71.115234 8.0722656 L 72.521484 8.0722656 L 72.521484 5.8964844 L 74.900391 5.8964844 L 74.900391 12.041016 L 72.521484 12.041016 L 72.521484 9.8652344 L 71.115234 9.8652344 L 71.115234 12.041016 L 68.734375 12.041016 L 68.734375 5.8964844 z M 75.328125 5.8964844 L 80.96875 5.8964844 L 80.96875 7.9277344 L 79.337891 7.9277344 L 79.337891 12.041016 L 76.958984 12.041016 L 76.958984 7.9277344 L 75.328125 7.9277344 L 75.328125 5.8964844 z M 19.427734 7.5058594 L 19.427734 8.78125 L 20.171875 8.78125 C 20.640612 8.78125 21.009766 8.6920443 21.009766 8.0878906 C 21.009766 7.6920569 20.822304 7.5058594 20.291016 7.5058594 L 19.427734 7.5058594 z M 26.306641 7.5058594 L 26.306641 8.78125 L 27.052734 8.78125 C 27.521509 8.78125 27.890625 8.6920443 27.890625 8.0878906 C 27.890625 7.6920569 27.703163 7.5058594 27.171875 7.5058594 L 26.306641 7.5058594 z M 16.8125 17.453125 L 83.083984 17.453125 L 83.083984 42.875 L 16.8125 42.875 L 9.4746094 29.521484 L 16.8125 17.453125 z M 1.21875 48.115234 L 83.083984 48.115234 L 83.083984 56.15625 L 1.21875 56.15625 L 1.21875 48.115234 z"
     transform="scale(0.26458333)" />
  <path
     id="path5054"
     style="fill:#003d23;fill-opacity:1;fill-rule:nonzero;stroke:none;strokeWidth:1.33333"
     d="M 17.46875 18.365234 L 10.744141 29.494141 L 17.421875 41.740234 L 37.447266 41.740234 L 37.447266 35.052734 L 45.603516 35.052734 L 45.603516 41.740234 L 66.390625 41.740234 L 66.390625 18.365234 L 45.603516 18.365234 L 45.603516 24.734375 L 37.447266 24.734375 L 37.447266 18.365234 L 17.46875 18.365234 z M 18.115234 20.337891 L 35.765625 20.337891 L 35.765625 26.560547 L 47.310547 26.560547 L 47.310547 20.337891 L 64.732422 20.337891 L 64.732422 39.839844 L 47.310547 39.839844 L 47.310547 33.46875 L 35.765625 33.46875 L 35.765625 39.839844 L 18.115234 39.839844 L 18.115234 20.794922 L 18.115234 20.337891 z M 19.03125 21.251953 L 19.03125 38.923828 L 34.849609 38.923828 L 34.849609 32.554688 L 48.226562 32.554688 L 48.226562 38.923828 L 63.816406 38.923828 L 63.816406 21.251953 L 48.226562 21.251953 L 48.226562 27.474609 L 34.849609 27.474609 L 34.849609 21.251953 L 19.03125 21.251953 z"
     transform="scale(0.26458333)" />
  <path
     id="path5090"
     style="fill:#003d23;fill-opacity:1;fill-rule:nonzero;stroke:none;strokeWidth:0.352778"
     d="m 18.8433,13.682539 c -0.011,-0.06063 -0.0317,-0.124022 -0.16674,-0.124022 -0.13643,0 -0.15297,0.05099 -0.15297,0.09233 0,0.14883 0.59256,0.03996 0.59256,0.38723 0,0.274228 -0.26734,0.323839 -0.41479,0.323839 -0.21635,0 -0.44924,-0.07442 -0.45613,-0.326598 h 0.25631 c 0,0.07993 0.0496,0.137806 0.20671,0.137806 0.12816,0 0.15848,-0.06064 0.15848,-0.09646 0,-0.157095 -0.58705,-0.03858 -0.58705,-0.391361 0,-0.137806 0.0868,-0.314195 0.38172,-0.314195 0.18603,0 0.40652,0.04548 0.42581,0.311436 z m 0,0 m -0.76343,0.653193 h -0.24943 v -0.570509 c 0,-0.139181 -0.062,-0.186034 -0.13505,-0.186034 -0.12402,0 -0.16812,0.08268 -0.16812,0.192924 v 0.563619 h -0.24942 v -0.564998 c 0,-0.07993 0,-0.191545 -0.15021,-0.191545 -0.11713,0 -0.15434,0.0813 -0.15434,0.184655 v 0.571888 h -0.24942 v -0.939825 h 0.2384 v 0.137806 h 0.004 c 0.0317,-0.06201 0.1006,-0.16261 0.26872,-0.16261 0.13643,0 0.19844,0.04961 0.26321,0.150206 0.0317,-0.04547 0.10059,-0.150206 0.25218,-0.150206 0.18465,0 0.32935,0.107488 0.32935,0.314195 z m 0,0 m -1.52963,-0.275608 c -0.0661,0.225997 -0.25493,0.300412 -0.41616,0.300412 -0.26734,0 -0.47267,-0.126781 -0.47267,-0.514008 0,-0.112998 0.04,-0.475425 0.45475,-0.475425 0.18604,0 0.44373,0.08819 0.44373,0.518143 v 0.0441 h -0.64906 c 0.007,0.07028 0.0221,0.230135 0.22325,0.230135 0.0689,0 0.14055,-0.03583 0.15985,-0.103354 z m -0.24667,-0.288011 c -0.0138,-0.151585 -0.11162,-0.197058 -0.19154,-0.197058 -0.11714,0 -0.18052,0.07441 -0.19431,0.197058 z m 0,0 m -0.88056,-0.376206 h 0.15572 v 0.176389 h -0.15572 v 0.511253 c 0,0.05512 0.003,0.07579 0.10335,0.07579 0.0165,0 0.0345,-0.0014 0.0524,-0.0028 v 0.187413 c -0.04,0.0014 -0.0786,0.0028 -0.11851,0.0028 h -0.0317 c -0.21498,0 -0.25494,-0.0813 -0.25494,-0.202572 v -0.570508 h -0.12678 v -0.177769 h 0.12678 v -0.253559 h 0.24942 z m 0,0 m -0.73174,0.286632 c -0.011,-0.06063 -0.0331,-0.124022 -0.16812,-0.124022 -0.13505,0 -0.15296,0.05099 -0.15296,0.09233 0,0.14883 0.59255,0.03996 0.59255,0.38723 0,0.274228 -0.26734,0.323839 -0.41479,0.323839 -0.21497,0 -0.44786,-0.07442 -0.45475,-0.326598 h 0.25494 c 0,0.07993 0.051,0.137806 0.2067,0.137806 0.12816,0 0.15848,-0.06064 0.15848,-0.09646 0,-0.157095 -0.58705,-0.03858 -0.58705,-0.391361 0,-0.137806 0.0868,-0.314195 0.3831,-0.314195 0.18465,0 0.40514,0.04548 0.42443,0.311436 z m 0,0 m -1.00735,0.638034 c -0.11713,0.347264 -0.1502,0.39412 -0.36655,0.39412 -0.0345,0 -0.0772,-0.0028 -0.113,-0.0041 v -0.197061 c 0.011,0.0014 0.0275,0.0028 0.0482,0.0028 0.091,0 0.14056,-0.01242 0.16398,-0.140561 l -0.34864,-0.979787 h 0.27699 l 0.20395,0.693155 h 0.003 l 0.1943,-0.693155 h 0.26321 z m 0,0 m -1.49517,-0.374826 c 10e-4,0.07028 0.0372,0.205327 0.2701,0.205327 0.12678,0 0.26734,-0.0303 0.26734,-0.165365 0,-0.09784 -0.0965,-0.125402 -0.23151,-0.157095 l -0.13643,-0.03168 c -0.20671,-0.04685 -0.40652,-0.0937 -0.40652,-0.372067 0,-0.14194 0.0772,-0.391365 0.49058,-0.391365 0.39274,0 0.49747,0.254939 0.49885,0.410655 h -0.25631 c -0.007,-0.0565 -0.0276,-0.191548 -0.26183,-0.191548 -0.1006,0 -0.22186,0.03721 -0.22186,0.152964 0,0.09784 0.0813,0.119888 0.13504,0.132292 l 0.31144,0.07579 c 0.17501,0.04272 0.33486,0.112998 0.33486,0.340377 0,0.381717 -0.39136,0.416165 -0.50436,0.416165 -0.46578,0 -0.5457,-0.267338 -0.5457,-0.424434 z m 0,0 m -0.92328,-0.54984 V 14.2875 c 0,0.16261 -0.0124,0.432703 -0.47818,0.432703 -0.19568,0 -0.40239,-0.08406 -0.41341,-0.282497 h 0.27009 c 0.011,0.04685 0.0303,0.09508 0.17501,0.09508 0.13367,0 0.19706,-0.06339 0.19706,-0.216351 v -0.112999 l -0.003,-0.0028 c -0.0413,0.07166 -0.10335,0.140561 -0.25356,0.140561 -0.22738,0 -0.4079,-0.157096 -0.4079,-0.48507 0,-0.325215 0.18603,-0.485069 0.39412,-0.485069 0.17639,0 0.24667,0.103353 0.27698,0.163989 h 0.004 v -0.139185 z m -0.45889,0.737253 c 0.1695,0 0.21222,-0.143316 0.21222,-0.272853 0,-0.151585 -0.0758,-0.275607 -0.2136,-0.275607 -0.0937,0 -0.19568,0.06753 -0.19568,0.286632 0,0.119888 0.0496,0.261828 0.19706,0.261828 z m 0,0 m -0.64079,0.202572 H 9.91637 v -0.570509 c 0,-0.0689 -0.003,-0.186034 -0.16123,-0.186034 -0.11025,0 -0.19568,0.07441 -0.19568,0.217728 v 0.538815 H 9.31003 v -0.939825 h 0.2384 v 0.137806 h 0.004 c 0.0331,-0.0565 0.10473,-0.16261 0.28387,-0.16261 0.18604,0 0.32936,0.107488 0.32936,0.314195 z m 0,0 M 9.07163,13.395907 v 0.939825 H 8.8222 v -0.939825 z m 0,-0.111619 H 8.8222 v -0.228755 h 0.24943 z m 0,0 M 8.57691,14.335732 H 8.32887 v -1.267795 h 0.24804 z m 0,0 m -0.49333,0 H 7.83415 v -1.267795 h 0.24943 z m 0,0 M 7.65087,14.060124 c -0.0661,0.225997 -0.25494,0.300412 -0.41617,0.300412 -0.26733,0 -0.47266,-0.126781 -0.47266,-0.514008 0,-0.112998 0.04,-0.475425 0.45475,-0.475425 0.18604,0 0.44511,0.08819 0.44511,0.518143 v 0.0441 H 7.01146 c 0.007,0.07028 0.022,0.230135 0.22324,0.230135 0.0689,0 0.14057,-0.03583 0.15986,-0.103354 z M 7.40558,13.772113 c -0.0152,-0.151585 -0.113,-0.197058 -0.19292,-0.197058 -0.11714,0 -0.17915,0.07441 -0.19293,0.197058 z m 0,0 M 6.60632,14.335732 H 6.35689 v -0.570509 c 0,-0.0689 -0.003,-0.186034 -0.16123,-0.186034 -0.11024,0 -0.19568,0.07441 -0.19568,0.217728 v 0.538815 H 5.75056 v -0.939825 h 0.2384 v 0.137806 h 0.004 c 0.0331,-0.0565 0.10473,-0.16261 0.28387,-0.16261 0.18604,0 0.32935,0.107488 0.32935,0.314195 z m 0,0 m -1.08727,0 H 5.271 v -0.570509 c 0,-0.0689 -0.004,-0.186034 -0.16261,-0.186034 -0.11024,0 -0.19568,0.07441 -0.19568,0.217728 v 0.538815 H 4.66329 v -0.939825 h 0.2384 v 0.137806 h 0.004 c 0.0331,-0.0565 0.10474,-0.16261 0.28388,-0.16261 0.18603,0 0.32935,0.107488 0.32935,0.314195 z m 0,0 m -1.08865,0 H 4.192 V 14.20344 H 4.188 c -0.0565,0.100595 -0.15572,0.157096 -0.28801,0.157096 -0.18604,0 -0.32246,-0.106109 -0.32246,-0.345888 v -0.618741 h 0.24943 v 0.582913 c 0,0.144691 0.0854,0.173633 0.1626,0.173633 0.0813,0 0.19155,-0.04548 0.19155,-0.213596 v -0.54295 h 0.24942 z m 0,0 m -1.21819,0 H 2.94487 V 13.292558 H 2.55764 v -0.224621 h 1.04042 v 0.224621 H 3.21221 Z m 0,0" />
</svg>
